<?xml version="1.0" standalone="no"?>
<!DOCTYPE svg PUBLIC "-//W3C//DTD SVG 20010904//EN"
 "http://www.w3.org/TR/2001/REC-SVG-20010904/DTD/svg10.dtd">
<svg version="1.0" xmlns="http://www.w3.org/2000/svg"
 width="624.000000pt" height="624.000000pt" viewBox="0 0 624.000000 624.000000"
 preserveAspectRatio="xMidYMid meet">
<metadata>
Created by potrace 1.14, written by Peter Selinger 2001-2017
</metadata>
<g transform="translate(0.000000,624.000000) scale(0.100000,-0.100000)"
fill="#000000" stroke="none">
<path d="M2660 5983 c-69 -137 -128 -249 -132 -251 -5 -2 -8 -9 -8 -16 0 -7
-16 -44 -36 -82 -45 -87 -462 -909 -602 -1189 -58 -115 -109 -211 -114 -213
-4 -2 -8 -9 -8 -15 0 -6 -50 -110 -111 -231 -62 -122 -180 -356 -263 -521 -83
-165 -154 -301 -159 -303 -4 -2 -7 -9 -7 -15 0 -7 -27 -64 -60 -127 -33 -63
-60 -118 -60 -123 0 -4 -7 -18 -15 -30 -8 -13 -100 -191 -204 -397 -281 -555
-321 -636 -321 -648 0 -6 -4 -12 -8 -14 -5 -1 -36 -57 -69 -123 -32 -66 -116
-233 -186 -372 -70 -138 -127 -254 -127 -258 0 -3 17 11 39 32 21 21 76 72
121 113 95 86 123 111 201 183 31 29 98 90 149 137 52 47 111 102 133 122 22
20 70 65 108 99 38 34 88 80 112 103 24 22 77 70 116 106 40 36 87 79 105 95
18 17 79 73 136 125 57 52 118 109 135 125 30 28 166 152 226 206 14 13 70 65
123 114 54 50 104 94 112 98 8 4 14 15 14 22 0 8 3 15 8 15 4 0 14 15 21 33 8
17 71 147 139 287 68 140 157 323 197 405 335 691 415 854 423 859 4 3 14 -10
22 -27 7 -18 42 -90 76 -162 34 -71 83 -175 109 -230 26 -55 71 -149 100 -210
29 -60 76 -158 104 -217 62 -130 128 -270 231 -483 42 -88 87 -184 100 -212
13 -29 30 -53 37 -53 7 0 13 4 13 8 0 5 8 17 18 28 9 10 57 66 106 124 49 58
99 114 111 126 12 11 26 28 31 36 5 9 34 44 65 79 31 35 74 85 95 110 22 25
62 72 89 104 28 32 54 64 58 71 5 9 -24 79 -81 197 -176 358 -366 746 -474
967 -61 124 -162 331 -226 460 -122 249 -320 655 -480 983 -53 108 -99 197
-102 197 -3 0 -62 -111 -130 -247z"/>
<path d="M6037 4828 c-20 -24 -52 -61 -72 -83 -20 -22 -49 -55 -63 -74 -15
-18 -38 -45 -52 -60 -53 -58 -145 -164 -157 -181 -7 -10 -27 -33 -45 -52 -18
-19 -52 -57 -75 -84 -24 -28 -53 -62 -65 -76 -13 -14 -48 -53 -78 -88 -30 -35
-64 -74 -75 -86 -11 -12 -40 -46 -65 -75 -50 -59 -107 -124 -130 -149 -8 -8
-40 -45 -70 -80 -30 -36 -72 -83 -92 -105 -20 -22 -47 -53 -60 -70 -12 -16
-32 -40 -43 -51 -11 -12 -40 -45 -65 -74 -25 -30 -58 -68 -75 -86 -16 -18 -50
-56 -75 -85 -25 -29 -54 -63 -65 -75 -11 -12 -29 -33 -39 -46 -11 -13 -51 -59
-89 -103 -215 -246 -217 -248 -217 -257 0 -5 -7 -8 -15 -8 -8 0 -15 -4 -15
-10 0 -5 -8 -18 -17 -29 -16 -16 -76 -84 -133 -151 -12 -14 -43 -50 -70 -80
-65 -74 -85 -97 -133 -154 -23 -27 -47 -54 -52 -60 -12 -12 -208 -238 -240
-275 -11 -13 -31 -36 -44 -50 -13 -14 -36 -41 -51 -59 l-27 -33 -22 36 c-11
20 -21 38 -21 40 0 1 -18 33 -40 69 -22 36 -40 70 -40 76 0 5 -4 10 -10 10 -5
0 -10 4 -10 9 0 6 -41 81 -92 168 -50 87 -99 173 -107 191 -8 17 -19 32 -23
32 -4 0 -8 4 -8 9 0 5 -38 74 -85 155 -47 80 -85 150 -85 155 0 5 -4 11 -8 13
-5 1 -23 31 -42 66 -18 34 -36 62 -39 62 -3 0 -20 -13 -38 -28 -17 -15 -40
-34 -50 -42 -31 -25 -257 -214 -269 -225 -6 -5 -30 -26 -54 -45 -24 -19 -57
-47 -74 -61 -17 -15 -74 -62 -126 -105 -52 -43 -100 -83 -106 -89 -6 -5 -31
-26 -55 -46 -153 -127 -311 -258 -368 -306 -33 -28 -10 -10 -267 -223 -121
-100 -230 -192 -244 -203 -22 -19 -141 -118 -269 -225 -24 -20 -49 -42 -55
-47 -6 -6 -36 -30 -66 -55 -30 -24 -66 -54 -80 -67 -31 -27 -104 -87 -160
-133 -24 -19 -53 -44 -66 -55 -12 -11 -37 -31 -54 -45 -17 -14 -42 -34 -54
-45 -13 -11 -40 -33 -60 -50 -20 -16 -54 -45 -74 -64 -33 -31 -34 -32 -7 -16
62 38 200 130 213 143 8 7 28 20 45 29 18 9 34 19 37 22 10 13 70 51 79 51 5
0 11 4 13 8 1 4 44 35 93 67 50 33 92 62 95 66 3 3 10 8 15 10 6 2 70 45 143
94 74 50 144 97 157 105 102 65 801 537 803 543 2 4 10 7 18 7 8 0 14 5 14 10
0 6 7 10 15 10 8 0 15 5 15 10 0 6 7 10 15 10 8 0 15 5 15 10 0 6 6 10 14 10
8 0 16 3 18 8 5 10 66 52 77 52 5 0 11 3 13 8 4 9 269 185 272 180 1 -1 14
-28 28 -58 15 -30 63 -131 108 -225 158 -328 190 -395 190 -404 0 -5 7 -14 15
-21 8 -6 14 -15 13 -18 -1 -4 19 -50 44 -102 83 -173 175 -364 225 -470 232
-485 265 -550 275 -550 4 0 8 3 8 8 0 4 15 23 33 43 28 31 66 75 150 173 10
11 31 35 46 51 15 17 70 80 122 140 52 60 101 117 109 125 16 17 32 36 140
160 36 41 67 77 70 80 3 3 32 36 65 75 33 38 67 76 75 85 8 9 38 43 66 76 78
90 504 579 539 618 6 6 39 45 74 86 36 41 74 84 85 96 12 11 39 43 61 69 49
59 112 132 143 163 12 13 30 34 38 48 9 13 20 24 24 24 4 0 7 -549 6 -1220 0
-671 2 -1220 5 -1220 3 0 18 16 34 36 16 19 47 55 69 79 23 24 70 78 106 121
36 42 72 84 80 93 9 9 45 50 80 91 36 41 70 80 75 86 34 38 77 87 125 144 30
36 69 81 87 100 18 19 41 46 53 60 25 30 90 105 147 168 l43 47 0 1883 c0
1035 -2 1882 -4 1882 -2 0 -20 -19 -39 -42z"/>
</g>
</svg>
